<svg width="152" height="43" viewBox="0 0 152 43" fill="none" xmlns="http://www.w3.org/2000/svg">
<path d="M14.992 33.96C12.016 33.96 9.392 33.24 7.12 31.8C4.88 30.36 3.152 28.408 1.936 25.944C0.72 23.448 0.112 20.68 0.112 17.64C0.112 14.504 0.768 11.608 2.08 8.952C3.424 6.296 5.232 4.2 7.504 2.664C9.808 1.128 12.304 0.36 14.992 0.36C17.552 0.36 19.792 0.728 21.712 1.464C23.664 2.168 25.104 3.08 26.032 4.2C26.576 4.872 26.912 5.768 27.04 6.888C27.168 7.976 27.232 9.48 27.232 11.4H26.272C25.664 8.296 24.544 6.008 22.912 4.536C21.28 3.032 19.12 2.28 16.432 2.28C12.976 2.28 10.192 3.496 8.08 5.928C5.968 8.36 4.912 12.264 4.912 17.64C4.912 20.168 5.312 22.52 6.112 24.696C6.944 26.872 8.224 28.648 9.952 30.024C11.68 31.368 13.84 32.04 16.432 32.04C18.768 32.04 20.8 31.48 22.528 30.36C24.288 29.24 25.856 27.56 27.232 25.32L28.192 26.04C26.72 28.92 24.896 30.968 22.72 32.184C20.576 33.368 18 33.96 14.992 33.96ZM38.7539 33.48C37.7299 33.48 36.6899 33.272 35.6339 32.856C34.5779 32.408 33.6659 31.688 32.8979 30.696C32.1619 29.704 31.7939 28.392 31.7939 26.76C31.7939 24.328 32.9139 22.6 35.1539 21.576C37.4259 20.552 40.3859 20.04 44.0339 20.04H45.4739C45.4739 16.904 45.0419 14.76 44.1779 13.608C43.3139 12.456 42.0659 11.88 40.4339 11.88C38.9939 11.88 37.8419 12.184 36.9779 12.792C36.1139 13.4 35.5059 14.456 35.1539 15.96H32.9939C32.9939 14.872 33.0579 14.024 33.1859 13.416C33.3139 12.776 33.6499 12.184 34.1939 11.64C34.7699 11.064 35.7139 10.648 37.0259 10.392C38.3699 10.104 39.8259 9.96 41.3939 9.96C43.9859 9.96 46.0339 10.664 47.5379 12.072C49.0419 13.448 49.7939 16.104 49.7939 20.04V33H47.3939L45.7139 30.84H45.4739C44.8979 31.576 44.0499 32.2 42.9299 32.712C41.8099 33.224 40.4179 33.48 38.7539 33.48ZM40.9139 31.32C41.9699 31.32 42.8499 31.064 43.5539 30.552C44.2579 30.04 44.8979 29.336 45.4739 28.44V21.96H44.0339C41.6659 21.96 39.7939 22.408 38.4179 23.304C37.0419 24.168 36.3539 25.32 36.3539 26.76C36.3539 28.232 36.7859 29.368 37.6499 30.168C38.5459 30.936 39.6339 31.32 40.9139 31.32ZM63.1593 33.48C61.3673 33.48 59.9593 32.968 58.9353 31.944C57.9113 30.92 57.3993 29.352 57.3993 27.24V12.36H54.0393V10.44H57.3993V6.12L59.7993 3.24H61.7193V10.44H67.4793V12.36H61.7193V27.24C61.7193 30.12 62.8393 31.56 65.0793 31.56C65.8473 31.56 66.4873 31.48 66.9993 31.32C67.5433 31.16 68.1033 30.92 68.6793 30.6L69.1593 31.56C68.4233 32.104 67.6073 32.568 66.7113 32.952C65.8153 33.304 64.6313 33.48 63.1593 33.48ZM78.082 33.48C77.058 33.48 76.018 33.272 74.962 32.856C73.906 32.408 72.994 31.688 72.226 30.696C71.49 29.704 71.122 28.392 71.122 26.76C71.122 24.328 72.242 22.6 74.482 21.576C76.754 20.552 79.714 20.04 83.362 20.04H84.802C84.802 16.904 84.37 14.76 83.506 13.608C82.642 12.456 81.394 11.88 79.762 11.88C78.322 11.88 77.17 12.184 76.306 12.792C75.442 13.4 74.834 14.456 74.482 15.96H72.322C72.322 14.872 72.386 14.024 72.514 13.416C72.642 12.776 72.978 12.184 73.522 11.64C74.098 11.064 75.042 10.648 76.354 10.392C77.698 10.104 79.154 9.96 80.722 9.96C83.314 9.96 85.362 10.664 86.866 12.072C88.37 13.448 89.122 16.104 89.122 20.04V33H86.722L85.042 30.84H84.802C84.226 31.576 83.378 32.2 82.258 32.712C81.138 33.224 79.746 33.48 78.082 33.48ZM80.242 31.32C81.298 31.32 82.178 31.064 82.882 30.552C83.586 30.04 84.226 29.336 84.802 28.44V21.96H83.362C80.994 21.96 79.122 22.408 77.746 23.304C76.37 24.168 75.682 25.32 75.682 26.76C75.682 28.232 76.114 29.368 76.978 30.168C77.874 30.936 78.962 31.32 80.242 31.32ZM96.0074 7.08C96.0074 5.448 95.7834 4.248 95.3354 3.48C94.8874 2.68 93.9914 2.28 92.6474 2.28H91.6874V1.32H96.0074C97.1914 1.32 98.0714 1.48 98.6474 1.8C99.2554 2.088 99.6874 2.632 99.9434 3.432C100.199 4.232 100.327 5.448 100.327 7.08V33H96.0074V7.08ZM116.704 33.48C114.528 33.48 112.64 32.968 111.04 31.944C109.44 30.888 108.224 29.464 107.392 27.672C106.56 25.88 106.144 23.896 106.144 21.72C106.144 19.544 106.56 17.56 107.392 15.768C108.224 13.976 109.44 12.568 111.04 11.544C112.64 10.488 114.528 9.96 116.704 9.96C118.88 9.96 120.768 10.488 122.368 11.544C123.968 12.568 125.184 13.976 126.016 15.768C126.848 17.56 127.264 19.544 127.264 21.72C127.264 23.896 126.848 25.88 126.016 27.672C125.184 29.464 123.968 30.888 122.368 31.944C120.768 32.968 118.88 33.48 116.704 33.48ZM116.704 31.56C117.888 31.56 118.928 31.128 119.824 30.264C120.752 29.4 121.456 28.216 121.936 26.712C122.448 25.208 122.704 23.544 122.704 21.72C122.704 19.896 122.448 18.232 121.936 16.728C121.456 15.224 120.752 14.04 119.824 13.176C118.928 12.312 117.888 11.88 116.704 11.88C115.52 11.88 114.464 12.312 113.536 13.176C112.64 14.04 111.936 15.224 111.424 16.728C110.944 18.232 110.704 19.896 110.704 21.72C110.704 23.544 110.944 25.208 111.424 26.712C111.936 28.216 112.64 29.4 113.536 30.264C114.464 31.128 115.52 31.56 116.704 31.56ZM141.246 42.6C138.014 42.6 135.438 42.008 133.518 40.824C131.63 39.64 130.686 37.752 130.686 35.16C130.686 33.688 131.182 32.408 132.174 31.32C133.166 30.232 134.43 29.432 135.966 28.92C134.686 28.216 134.046 27.256 134.046 26.04C134.046 25.4 134.19 24.904 134.478 24.552C134.766 24.2 135.182 23.816 135.726 23.4C134.702 22.888 133.838 22.088 133.134 21C132.462 19.912 132.126 18.632 132.126 17.16C132.126 12.36 135.166 9.96 141.246 9.96H150.126V11.16L147.006 11.64V11.88C147.998 12.392 148.798 13.112 149.406 14.04C150.046 14.936 150.366 15.976 150.366 17.16C150.366 21.96 147.326 24.36 141.246 24.36C137.886 24.36 136.206 24.92 136.206 26.04C136.206 27.16 137.886 27.72 141.246 27.72C144.35 27.72 146.878 28.344 148.83 29.592C150.814 30.808 151.806 32.664 151.806 35.16C151.806 37.752 150.846 39.64 148.926 40.824C147.038 42.008 144.478 42.6 141.246 42.6ZM141.246 22.68C142.686 22.68 143.838 22.248 144.702 21.384C145.598 20.488 146.046 19.08 146.046 17.16C146.046 15.336 145.598 13.96 144.702 13.032C143.838 12.104 142.686 11.64 141.246 11.64C139.806 11.64 138.638 12.088 137.742 12.984C136.878 13.848 136.446 15.24 136.446 17.16C136.446 19.08 136.878 20.488 137.742 21.384C138.638 22.248 139.806 22.68 141.246 22.68ZM141.246 40.68C143.166 40.68 144.686 40.216 145.806 39.288C146.926 38.392 147.486 37.016 147.486 35.16C147.486 31.96 145.566 30.12 141.726 29.64L139.086 29.4C137.774 29.912 136.766 30.632 136.062 31.56C135.358 32.488 135.006 33.688 135.006 35.16C135.006 37.016 135.566 38.392 136.686 39.288C137.806 40.216 139.326 40.68 141.246 40.68Z" fill="#7000FF"/>
</svg>
