<svg width="258" height="168" viewBox="0 0 258 168" fill="none" xmlns="http://www.w3.org/2000/svg">
<path d="M189.003 -0.395738C177.368 3.02865 167.609 11.0189 162.354 21.5457C159.226 27.7603 151.47 53.3798 148.967 66.0627C142.712 96.3748 149.968 117.428 170.236 127.702C179.244 132.141 187.126 133.663 201.514 133.789C226.912 133.916 243.176 126.56 251.433 111.594C261.192 93.5846 260.316 77.2236 247.18 34.8627C240.674 14.0628 234.418 6.57986 218.779 0.872553C209.396 -2.425 197.636 -2.93232 189.003 -0.395738ZM221.532 11.7799C231.416 15.5847 236.42 20.9115 239.047 30.0432C245.053 51.0969 230.79 67.0773 204.517 68.5993C182.372 69.8676 166.608 58.7066 164.856 40.9505C163.355 25.3506 173.364 12.7945 190.004 9.24327C198.637 7.34083 213.275 8.60913 221.532 11.7799Z" fill="black"/>
<path d="M176.617 30.6772C175.616 32.1992 180.62 33.7211 184.499 33.087C186 32.8333 187.376 32.0724 187.502 31.4382C187.877 29.7894 177.618 29.0285 176.617 30.6772Z" fill="black"/>
<path d="M216.152 31.058C216.902 33.2141 220.155 33.7214 225.66 32.7068C231.54 31.5653 228.663 29.536 221.156 29.536C217.278 29.536 215.901 30.0433 216.152 31.058Z" fill="black"/>
<path d="M177.493 43.1066C176.617 43.3602 175.866 45.009 175.866 46.6578C175.866 50.0822 177.993 51.2236 181.246 49.5749C183.873 48.1797 183.998 43.9944 181.371 42.9798C180.245 42.5993 179.369 42.2188 179.244 42.3456C179.119 42.3456 178.243 42.7261 177.493 43.1066Z" fill="black"/>
<path d="M220.906 44.1212C218.529 47.0383 220.406 49.8285 224.534 49.8285C228.913 49.8285 230.79 46.2773 227.662 43.8675C224.785 41.7114 222.783 41.8383 220.906 44.1212Z" fill="black"/>
<path d="M198.886 52.4919C200.388 53.5065 202.014 53.5065 203.891 52.6187C206.143 51.4773 205.893 51.2236 201.514 51.2236C197.385 51.2236 196.885 51.3504 198.886 52.4919Z" fill="black"/>
<path d="M109.182 21.6724C107.555 22.0529 107.055 23.0675 107.305 25.4773C107.806 29.7895 111.559 30.0431 114.186 26.1114C115.813 23.7017 115.813 23.3212 113.686 22.1797C112.435 21.6724 110.433 21.2919 109.182 21.6724Z" fill="black"/>
<path d="M94.5439 24.3358C93.9183 25.7309 93.2928 28.2675 93.2928 29.9163C93.2928 32.3261 91.5412 34.3553 86.787 37.9065C78.4045 44.1212 77.1534 45.7699 77.0283 50.5894C77.0283 56.6772 84.0345 62.5114 91.291 62.5114C95.0443 62.5114 97.0461 63.1455 97.5465 64.4138C98.2972 66.5699 101.55 66.9504 102.676 65.048C103.051 64.4138 102.426 59.2138 101.3 53.5065C99.7985 45.8968 99.4232 40.1895 100.049 32.4529C100.925 22.4334 100.799 21.9261 98.4223 21.9261C97.0461 21.9261 95.2945 23.0675 94.5439 24.3358ZM93.2928 48.5602C93.2928 54.3943 93.0425 54.9016 90.4152 54.9016C86.5368 54.9016 84.535 52.6187 84.535 48.3065C84.535 44.7553 87.1623 42.3456 91.1659 42.2187C92.9174 42.2187 93.2928 43.3602 93.2928 48.5602Z" fill="black"/>
<path d="M16.9748 26.3651C15.7237 28.0138 16.4744 30.4236 21.9793 41.4577C28.2348 54.1406 28.6101 55.1553 27.7344 61.4967C27.2339 65.1748 26.4833 70.6284 26.1079 73.5455C25.6075 77.8577 25.8577 79.126 27.4841 79.7601C30.8622 81.0284 32.1133 78.7455 33.2393 69.3601C34.115 62.6382 34.9908 60.2284 36.8675 58.8333C39.9953 56.804 40.1204 55.6626 37.493 52.9992C35.7415 51.2236 35.7415 50.5894 37.3679 46.9114C39.6199 42.0919 43.2482 29.2821 43.2482 26.4919C43.2482 23.9553 38.9944 23.8285 36.4922 26.3651C35.4913 27.3797 33.9899 31.4382 33.2393 35.3699C32.3635 39.4285 31.2375 42.2187 30.3617 41.8382C29.611 41.5846 27.6093 37.7797 25.8577 33.2138C22.4797 24.9699 19.8524 22.8138 16.9748 26.3651Z" fill="black"/>
<path d="M63.2655 33.975C63.2655 34.9896 64.3915 37.653 65.7677 39.9359C69.1457 45.5164 69.1457 54.7749 65.7677 59.0871C61.0135 65.1749 59.0117 62.2578 56.5095 46.0237C55.2584 37.1457 54.8831 36.5115 52.0055 36.5115C49.128 36.5115 48.8777 37.0189 48.5024 42.5993C47.8769 51.3505 51.2549 61.6237 55.884 65.5554C60.6382 69.7408 63.3906 69.7408 68.1449 65.6822C78.0286 57.1847 76.6524 32.0725 66.2682 32.0725C64.5166 32.0725 63.2655 32.8335 63.2655 33.975Z" fill="black"/>
<path d="M108.556 36.1309C107.68 37.0187 107.055 40.9504 107.18 45.8967C107.305 57.565 108.306 60.6089 112.059 60.6089C115.187 60.6089 115.187 60.6089 114.937 47.926C114.812 36.6382 114.562 35.2431 112.435 34.8626C111.184 34.7358 109.432 35.2431 108.556 36.1309Z" fill="black"/>
<path d="M83.1589 83.8187C77.4038 87.6235 75.7773 89.9065 75.7773 94.2187C75.7773 98.404 80.0311 101.828 89.4145 105.38C100.174 109.311 102.426 111.848 99.048 115.653C95.5449 119.584 90.1651 120.219 86.2867 117.175C81.2822 113.243 76.528 116.794 79.7809 122.121C84.9105 130.492 102.426 127.828 107.931 117.936C108.807 116.414 109.432 112.989 109.557 110.453C109.557 106.014 109.182 105.633 101.8 101.955C97.6718 99.7991 93.1678 98.0235 92.0418 98.0235C89.1642 98.0235 85.2858 93.4577 86.1616 91.0479C87.1625 88.5113 91.2911 88.6382 98.6727 91.3016C103.927 93.204 104.803 93.204 106.43 91.5552C110.433 87.6235 104.428 82.5504 93.7933 80.9016C89.7898 80.2675 87.9131 80.7748 83.1589 83.8187Z" fill="black"/>
<path d="M51.881 87.4968C48.503 92.9504 48.1277 94.3455 48.503 101.702C49.0034 108.931 49.5039 110.199 53.007 113.37C60.2634 119.965 68.2705 117.555 71.8988 107.789C76.2777 96.1211 69.2714 81.5358 59.2625 81.5358C56.385 81.5358 55.0088 82.6772 51.881 87.4968ZM65.7683 100.56C65.7683 103.097 62.6405 106.902 60.6388 106.902C57.7612 106.902 54.5083 104.111 54.5083 101.702C54.5083 98.7845 56.7603 94.0919 58.7621 92.6967C60.5137 91.4285 65.7683 97.3894 65.7683 100.56Z" fill="black"/>
<path d="M17.6004 85.2137C8.59237 87.4966 4.21349 92.3162 1.21082 102.843C-1.41652 111.848 0.33504 121.36 5.4646 126.306C10.3439 130.999 21.9793 134.043 31.1124 133.028C42.4975 131.887 49.6288 126.18 45.7504 121.487C43.6235 118.823 39.6199 119.077 34.7406 122.121C32.2384 123.643 28.485 124.658 24.9819 124.658C20.1026 124.658 18.6013 124.023 15.0982 120.472C8.59238 113.877 7.7166 104.492 12.9713 98.0235C14.7228 95.7405 17.225 94.8527 23.2304 94.0918C32.2384 93.0771 36.2419 90.2869 33.2393 87.243C30.9873 84.9601 22.6048 83.9454 17.6004 85.2137Z" fill="black"/>
<path d="M2.83769 148.375C2.33725 148.755 1.96191 152.56 1.96191 156.619V163.975H8.84303C14.8484 163.975 15.7241 163.594 15.7241 161.565C15.7241 159.409 15.3488 159.282 12.0959 160.55C6.84125 162.58 4.21391 161.058 4.71436 156.111C5.08969 152.18 5.33991 151.926 10.0941 151.799C17.3506 151.545 17.4757 151.419 15.7241 149.389C14.0977 147.487 4.46414 146.726 2.83769 148.375Z" fill="black"/>
<path d="M19.7272 149.643C19.1017 150.911 18.6012 154.463 18.7263 157.633L18.8514 163.341H25.7326H32.6137L32.989 157.253C33.2392 153.828 32.7388 150.277 31.863 149.263C29.7361 146.599 21.1034 146.98 19.7272 149.643ZM29.4859 156.365C29.4859 161.184 29.2357 161.438 25.7326 161.438C22.2294 161.438 21.9792 161.184 21.9792 156.365C21.9792 151.545 22.2294 151.292 25.7326 151.292C29.2357 151.292 29.4859 151.545 29.4859 156.365Z" fill="black"/>
<path d="M37.368 148.248C34.9908 149.263 35.3662 155.985 37.7433 156.872C38.8693 157.253 41.6217 157.633 44.124 157.633C47.0015 157.633 48.2526 158.141 48.0024 159.155C47.1266 161.565 43.3733 161.945 39.9953 160.043C36.6173 158.267 35.116 159.028 36.1168 162.072C36.7424 163.467 38.7442 163.975 43.8737 163.975H50.88L50.5046 159.282C50.1293 154.589 50.0042 154.463 44.8746 154.082C41.872 153.828 39.4948 153.067 39.4948 152.306C39.4948 151.419 41.6217 151.165 45.25 151.672C50.0042 152.18 50.88 151.926 50.5046 150.15C50.2544 148.628 48.628 147.994 44.4993 147.867C41.3715 147.741 38.1186 147.867 37.368 148.248Z" fill="black"/>
<path d="M54.1326 148.248C53.6322 148.755 53.2568 152.56 53.2568 156.619C53.2568 162.326 53.6322 163.975 55.1335 163.975C56.1344 163.975 57.0102 162.833 57.0102 161.565C57.0102 159.536 58.0111 159.028 62.3899 158.648C67.6446 158.267 67.6446 158.267 67.6446 153.194V148.121L61.3891 147.741C57.8859 147.487 54.6331 147.741 54.1326 148.248ZM65.0173 153.194C65.3926 154.336 64.8922 155.477 63.8913 155.858C61.0137 156.999 57.6357 155.858 57.2604 153.448C56.8851 151.799 57.6357 151.292 60.5133 151.292C62.7653 151.292 64.5168 152.053 65.0173 153.194Z" fill="black"/>
<path d="M70.6477 148.755C70.6477 149.389 70.5226 151.672 70.5226 153.828C70.5226 164.609 70.1473 163.975 77.654 163.975C85.7862 163.975 86.9122 161.819 79.2804 161.184L73.9006 160.804L73.5253 154.082C73.2751 150.531 72.6495 147.487 71.8989 147.487C71.2733 147.487 70.7729 147.994 70.6477 148.755Z" fill="black"/>
<path d="M88.5386 150.024C86.5368 151.926 85.7861 154.082 85.7861 158.267C85.7861 164.102 87.5377 166.004 88.6637 161.438C89.5395 157.887 95.795 157.887 96.6708 161.438C98.047 166.638 99.5484 163.721 99.5484 155.731V147.487H95.4197C92.9175 147.487 90.165 148.502 88.5386 150.024ZM97.0461 153.828C97.0461 155.731 96.1704 156.365 93.543 156.365C89.1641 156.365 87.913 155.224 89.6646 152.941C91.9166 150.277 97.0461 150.784 97.0461 153.828Z" fill="black"/>
<path d="M102.801 148.375C101.049 150.15 102.175 153.828 105.178 155.858C107.055 157.126 108.306 159.155 108.306 160.931C108.306 162.58 108.931 163.975 109.557 163.975C110.308 163.975 110.808 162.58 110.808 160.931C110.808 159.155 112.059 157.126 113.936 155.858C117.064 153.828 118.065 149.516 115.938 148.121C115.187 147.741 113.936 149.009 113.06 150.911C112.184 152.687 110.808 154.463 110.057 154.716C108.181 155.35 104.302 151.419 105.178 150.024C106.054 148.628 103.927 147.233 102.801 148.375Z" fill="black"/>
<path d="M131.952 150.531C129.575 152.687 128.449 155.477 127.823 160.17C126.948 167.272 127.698 169.809 129.7 166.131C131.326 163.341 140.835 162.96 140.835 165.877C140.835 166.892 141.711 167.78 142.837 167.78C144.463 167.78 144.713 166.892 144.088 163.721C143.587 161.438 143.087 156.999 142.962 153.828C142.712 148.502 142.461 148.121 138.958 147.741C136.331 147.487 134.204 148.375 131.952 150.531ZM139.334 155.984C139.083 159.789 138.458 160.804 136.456 160.804C133.453 160.804 132.327 155.984 134.579 153.067C137.582 149.516 139.709 150.911 139.334 155.984Z" fill="black"/>
<path d="M148.591 150.404C146.59 152.433 145.839 154.97 145.839 158.775C145.839 165.116 148.842 165.624 149.092 159.282C149.342 153.194 150.468 151.292 153.971 151.292C156.849 151.292 157.099 151.672 157.099 157.633C157.099 162.453 157.599 163.975 158.976 163.975C160.602 163.975 160.852 162.58 160.602 155.985L160.227 148.121L155.848 147.741C152.47 147.487 150.718 148.121 148.591 150.404Z" fill="black"/>
<path d="M163.605 149.136C161.853 151.165 162.229 163.975 163.98 163.975C164.731 163.975 165.982 162.833 166.858 161.438C168.86 158.141 173.364 158.141 174.239 161.438C175.616 166.892 177.242 163.594 176.867 155.985L176.491 148.121L170.736 147.741C166.983 147.487 164.481 147.994 163.605 149.136ZM173.989 153.828C173.989 156.746 166.608 156.365 166.107 153.448C165.732 151.546 166.357 151.165 169.86 151.546C172.488 151.799 173.989 152.56 173.989 153.828Z" fill="black"/>
<path d="M189.628 155.731V163.975H196.509H203.515L203.14 158.902C203.015 156.111 203.265 153.575 203.765 153.067C204.141 152.56 204.016 151.165 203.265 149.897C202.389 147.994 200.638 147.487 195.883 147.487H189.628V155.731ZM200.888 152.56C200.888 153.194 198.886 153.828 196.509 153.828C194.132 153.828 192.13 153.194 192.13 152.56C192.13 151.799 194.132 151.292 196.509 151.292C198.886 151.292 200.888 151.799 200.888 152.56ZM200.638 159.155C200.262 160.043 198.511 160.804 196.509 160.804C194.507 160.804 192.756 160.043 192.505 159.155C192.13 158.141 193.381 157.633 196.509 157.633C199.637 157.633 200.888 158.141 200.638 159.155Z" fill="black"/>
<path d="M206.768 148.375C206.268 148.755 205.893 152.56 205.893 156.619V163.975H212.649C219.405 163.975 222.282 162.326 219.905 159.916C219.154 159.155 218.404 159.155 217.903 160.043C217.403 160.804 215.401 161.438 213.274 161.438C209.896 161.438 209.646 161.184 209.646 156.238V150.911L215.276 151.672C221.031 152.56 222.157 151.799 219.405 149.009C217.778 147.36 208.145 146.853 206.768 148.375Z" fill="black"/>
<path d="M223.283 149.389C223.158 150.404 223.158 152.18 223.158 153.194C223.158 154.209 223.158 157.126 223.283 159.536L223.408 163.975H231.04C235.669 163.975 238.297 163.467 237.796 162.706C237.421 161.945 235.419 161.438 233.417 161.438C225.035 161.438 223.158 158.014 231.29 157.38C234.168 157.126 236.545 156.365 236.545 155.731C236.545 154.97 234.168 154.336 231.29 154.082C224.034 153.575 224.409 151.545 231.916 151.038C239.923 150.531 238.797 148.248 230.29 147.741C224.785 147.487 223.408 147.741 223.283 149.389Z" fill="black"/>
<path d="M239.673 149.77C239.673 151.038 240.424 152.814 241.174 153.575C242.425 154.843 242.425 155.731 241.174 157.633C239.172 160.931 239.298 163.975 241.424 163.975C242.425 163.975 243.426 162.706 243.676 161.058C243.927 159.282 244.928 158.267 246.554 158.267C247.93 158.267 249.557 159.536 250.307 161.058C250.933 162.706 252.184 163.975 253.06 163.975C255.312 163.975 255.062 159.536 252.81 157.633C251.058 156.111 251.058 155.731 252.81 153.828C254.936 151.419 255.187 149.263 253.435 148.121C252.81 147.741 251.558 148.755 250.683 150.531C248.931 154.716 245.053 154.716 243.176 150.658C241.55 146.98 239.673 146.472 239.673 149.77Z" fill="black"/>
</svg>
