<svg width="102" height="34" viewBox="0 0 102 34" fill="none" xmlns="http://www.w3.org/2000/svg">
<path d="M7.2 33H5.28V7.08C5.28 5.544 4.944 4.36 4.272 3.528C3.632 2.696 2.528 2.28 0.96 2.28H0.48V1.32H3.6C5.072 1.32 6.32 1.56 7.344 2.04C8.368 2.52 9.28 3.24 10.08 4.2L26.88 25.08V1.32H28.8V33.48H27.84L7.2 7.8V33ZM37.9474 7.08C37.9474 5.448 37.7234 4.248 37.2754 3.48C36.8274 2.68 35.9314 2.28 34.5874 2.28H33.6274V1.32H54.0754C56.7954 1.32 58.1554 2.6 58.1554 5.16V8.76H57.1954C57.1954 5.08 55.1954 3.24 51.1954 3.24H42.2674V15.72H55.2274V17.64H42.2674V31.08H50.6674C52.8754 31.08 54.6034 30.68 55.8514 29.88C57.0994 29.08 58.0914 27.72 58.8274 25.8L59.7874 26.04L58.1074 30.6C57.5314 32.2 56.3314 33 54.5074 33H37.9474V7.08ZM64.9159 6.936C64.2759 5.08 63.5879 3.816 62.8519 3.144C62.1479 2.44 61.0759 2.024 59.6359 1.896V0.935998C59.7959 0.935998 60.0359 0.919998 60.3559 0.887999C60.6439 0.855999 60.9479 0.839999 61.2679 0.839999C63.0279 0.839999 64.6119 1.24 66.0199 2.04C67.4599 2.84 68.6119 4.472 69.4759 6.936L75.9079 25.464L81.0439 10.248L79.8919 6.936C79.2519 5.08 78.5639 3.816 77.8279 3.144C77.1239 2.44 76.0519 2.024 74.6119 1.896V0.935998C74.7719 0.935998 74.9959 0.919998 75.2839 0.887999C75.6039 0.855999 75.9239 0.839999 76.2439 0.839999C78.0039 0.839999 79.5879 1.24 80.9959 2.04C82.4359 2.84 83.5879 4.472 84.4519 6.936L90.8839 25.464L99.0919 1.32H101.156L90.1639 33.48H89.2039L82.0999 13.272L75.1879 33.48H74.2279L64.9159 6.936Z" fill="#7000FF"/>
</svg>
