<svg width="250" height="34" viewBox="0 0 250 34" fill="none" xmlns="http://www.w3.org/2000/svg">
<path d="M15.088 33.96C12.112 33.96 9.488 33.224 7.216 31.752C4.976 30.28 3.248 28.264 2.032 25.704C0.816 23.144 0.208 20.296 0.208 17.16C0.208 14.024 0.816 11.176 2.032 8.616C3.248 6.056 4.976 4.04 7.216 2.568C9.488 1.096 12.112 0.36 15.088 0.36C18.064 0.36 20.672 1.096 22.912 2.568C25.184 4.04 26.928 6.056 28.144 8.616C29.36 11.176 29.968 14.024 29.968 17.16C29.968 20.296 29.36 23.144 28.144 25.704C26.928 28.264 25.184 30.28 22.912 31.752C20.672 33.224 18.064 33.96 15.088 33.96ZM15.088 32.04C17.168 32.04 18.96 31.432 20.464 30.216C22 29 23.168 27.288 23.968 25.08C24.768 22.84 25.168 20.2 25.168 17.16C25.168 14.12 24.768 11.496 23.968 9.288C23.168 7.048 22 5.32 20.464 4.104C18.96 2.888 17.168 2.28 15.088 2.28C13.008 2.28 11.2 2.888 9.664 4.104C8.16 5.32 7.008 7.048 6.208 9.288C5.408 11.496 5.008 14.12 5.008 17.16C5.008 20.2 5.408 22.84 6.208 25.08C7.008 27.288 8.16 29 9.664 30.216C11.2 31.432 13.008 32.04 15.088 32.04ZM43.8359 33.48C41.4359 33.48 39.4679 32.84 37.9319 31.56C36.4279 30.28 35.6759 28.04 35.6759 24.84V16.2C35.6759 14.568 35.4519 13.368 35.0039 12.6C34.5559 11.8 33.6599 11.4 32.3159 11.4H31.8359V10.44H35.6759C36.8599 10.44 37.7399 10.6 38.3159 10.92C38.9239 11.208 39.3559 11.752 39.6119 12.552C39.8679 13.352 39.9959 14.568 39.9959 16.2V24.84C39.9959 27.08 40.4919 28.728 41.4839 29.784C42.5079 30.808 43.7719 31.32 45.2759 31.32C46.9719 31.32 48.5719 30.472 50.0759 28.776V10.44H54.3959V33H51.9959L50.3159 31.08H50.0759C49.4039 31.752 48.5239 32.328 47.4359 32.808C46.3799 33.256 45.1799 33.48 43.8359 33.48ZM61.6994 16.2C61.6994 14.568 61.4754 13.368 61.0274 12.6C60.5794 11.8 59.6834 11.4 58.3394 11.4H57.8594V10.44H61.6994C62.9154 10.44 63.8274 10.616 64.4354 10.968C65.0754 11.288 65.5234 11.832 65.7794 12.6H66.0194C66.5954 11.864 67.3634 11.24 68.3234 10.728C69.3154 10.216 70.4674 9.96 71.7794 9.96C73.0594 9.96 74.0194 10.2 74.6594 10.68C75.2034 11.096 75.7634 11.816 76.3394 12.84L74.4194 14.28C74.0674 13.8 73.5554 13.448 72.8834 13.224C72.2114 12.968 71.4434 12.84 70.5794 12.84C69.6194 12.84 68.7394 13.064 67.9394 13.512C67.1394 13.928 66.4994 14.504 66.0194 15.24V33H61.6994V16.2ZM93.1135 16.2C93.1135 14.568 92.8895 13.368 92.4415 12.6C91.9935 11.8 91.0975 11.4 89.7535 11.4H88.7935V10.44H93.1135C94.2975 10.44 95.1935 10.6 95.8015 10.92C96.4415 11.24 96.9055 11.72 97.1935 12.36H97.4335C98.1055 11.688 98.9695 11.128 100.026 10.68C101.114 10.2 102.33 9.96 103.674 9.96C105.018 9.96 106.17 10.216 107.13 10.728C108.09 11.208 108.858 12.072 109.434 13.32C110.266 12.264 111.322 11.448 112.602 10.872C113.914 10.264 115.258 9.96 116.634 9.96C118.682 9.96 120.314 10.6 121.53 11.88C122.746 13.16 123.354 15.4 123.354 18.6V33H119.034V18.6C119.034 16.296 118.714 14.648 118.074 13.656C117.434 12.632 116.474 12.12 115.194 12.12C114.298 12.12 113.354 12.456 112.362 13.128C111.37 13.768 110.634 14.472 110.154 15.24C110.314 15.72 110.394 16.84 110.394 18.6V33H106.074V18.6C106.074 16.296 105.754 14.648 105.114 13.656C104.474 12.632 103.514 12.12 102.234 12.12C100.538 12.12 98.9375 12.968 97.4335 14.664V33H93.1135V16.2ZM135.457 33.48C134.433 33.48 133.393 33.272 132.337 32.856C131.281 32.408 130.369 31.688 129.601 30.696C128.865 29.704 128.497 28.392 128.497 26.76C128.497 24.328 129.617 22.6 131.857 21.576C134.129 20.552 137.089 20.04 140.737 20.04H142.177C142.177 16.904 141.745 14.76 140.881 13.608C140.017 12.456 138.769 11.88 137.137 11.88C135.697 11.88 134.545 12.184 133.681 12.792C132.817 13.4 132.209 14.456 131.857 15.96H129.697C129.697 14.872 129.761 14.024 129.889 13.416C130.017 12.776 130.353 12.184 130.897 11.64C131.473 11.064 132.417 10.648 133.729 10.392C135.073 10.104 136.529 9.96 138.097 9.96C140.689 9.96 142.737 10.664 144.241 12.072C145.745 13.448 146.497 16.104 146.497 20.04V33H144.097L142.417 30.84H142.177C141.601 31.576 140.753 32.2 139.633 32.712C138.513 33.224 137.121 33.48 135.457 33.48ZM137.617 31.32C138.673 31.32 139.553 31.064 140.257 30.552C140.961 30.04 141.601 29.336 142.177 28.44V21.96H140.737C138.369 21.96 136.497 22.408 135.121 23.304C133.745 24.168 133.057 25.32 133.057 26.76C133.057 28.232 133.489 29.368 134.353 30.168C135.249 30.936 136.337 31.32 137.617 31.32ZM160.726 33.48C157.046 33.48 154.566 32.84 153.286 31.56C152.742 31.016 152.406 30.408 152.278 29.736C152.15 29.032 152.086 27.96 152.086 26.52H153.046C153.334 28.12 154.022 29.368 155.11 30.264C156.23 31.128 157.782 31.56 159.766 31.56C161.526 31.56 162.838 31.256 163.702 30.648C164.598 30.04 165.046 29.224 165.046 28.2C165.046 27.272 164.694 26.472 163.99 25.8C163.318 25.128 162.23 24.488 160.726 23.88L157.846 22.68C155.926 21.912 154.486 21.016 153.526 19.992C152.566 18.968 152.086 17.704 152.086 16.2C152.086 14.248 152.822 12.728 154.294 11.64C155.766 10.52 157.67 9.96 160.006 9.96C163.526 9.96 165.926 10.6 167.206 11.88C167.75 12.424 168.086 13.032 168.214 13.704C168.342 14.376 168.406 15.448 168.406 16.92H167.446C167.19 15.32 166.518 14.088 165.43 13.224C164.342 12.328 162.854 11.88 160.966 11.88C159.462 11.88 158.278 12.2 157.414 12.84C156.582 13.448 156.166 14.248 156.166 15.24C156.166 16.904 157.446 18.264 160.006 19.32L162.886 20.52C165.062 21.416 166.646 22.376 167.638 23.4C168.63 24.392 169.126 25.672 169.126 27.24C169.126 29.192 168.342 30.728 166.774 31.848C165.206 32.936 163.19 33.48 160.726 33.48ZM181.284 33.48C179.492 33.48 178.084 32.968 177.06 31.944C176.036 30.92 175.524 29.352 175.524 27.24V12.36H172.164V10.44H175.524V6.12L177.924 3.24H179.844V10.44H185.604V12.36H179.844V27.24C179.844 30.12 180.964 31.56 183.204 31.56C183.972 31.56 184.612 31.48 185.124 31.32C185.668 31.16 186.228 30.92 186.804 30.6L187.284 31.56C186.548 32.104 185.732 32.568 184.836 32.952C183.94 33.304 182.756 33.48 181.284 33.48ZM199.615 33.48C197.439 33.48 195.599 32.968 194.095 31.944C192.591 30.888 191.455 29.48 190.687 27.72C189.919 25.928 189.535 23.928 189.535 21.72C189.535 19.544 189.919 17.56 190.687 15.768C191.455 13.976 192.559 12.568 193.999 11.544C195.471 10.488 197.183 9.96 199.135 9.96C202.367 9.96 204.767 10.872 206.335 12.696C207.935 14.488 208.735 17.096 208.735 20.52L208.639 22.44H194.095C194.095 25.128 194.671 27.32 195.823 29.016C196.975 30.712 198.559 31.56 200.575 31.56C202.079 31.56 203.343 31.24 204.367 30.6C205.423 29.96 206.399 29 207.295 27.72L208.255 28.44C207.199 30.2 205.967 31.48 204.559 32.28C203.151 33.08 201.503 33.48 199.615 33.48ZM204.175 20.52C204.175 17.704 203.759 15.56 202.927 14.088C202.095 12.616 200.831 11.88 199.135 11.88C198.175 11.88 197.311 12.264 196.543 13.032C195.775 13.768 195.167 14.792 194.719 16.104C194.303 17.416 194.095 18.888 194.095 20.52H204.175ZM214.653 16.2C214.653 14.568 214.429 13.368 213.98 12.6C213.533 11.8 212.637 11.4 211.293 11.4H210.812V10.44H214.653C215.869 10.44 216.781 10.616 217.389 10.968C218.029 11.288 218.477 11.832 218.733 12.6H218.973C219.549 11.864 220.317 11.24 221.277 10.728C222.269 10.216 223.421 9.96 224.733 9.96C226.013 9.96 226.973 10.2 227.613 10.68C228.157 11.096 228.717 11.816 229.293 12.84L227.373 14.28C227.021 13.8 226.509 13.448 225.837 13.224C225.165 12.968 224.397 12.84 223.533 12.84C222.573 12.84 221.693 13.064 220.893 13.512C220.093 13.928 219.453 14.504 218.973 15.24V33H214.653V16.2ZM240.883 33.48C237.203 33.48 234.723 32.84 233.443 31.56C232.899 31.016 232.563 30.408 232.435 29.736C232.307 29.032 232.243 27.96 232.243 26.52H233.203C233.491 28.12 234.179 29.368 235.267 30.264C236.387 31.128 237.939 31.56 239.923 31.56C241.683 31.56 242.995 31.256 243.859 30.648C244.755 30.04 245.203 29.224 245.203 28.2C245.203 27.272 244.851 26.472 244.147 25.8C243.475 25.128 242.387 24.488 240.883 23.88L238.003 22.68C236.083 21.912 234.643 21.016 233.683 19.992C232.723 18.968 232.243 17.704 232.243 16.2C232.243 14.248 232.979 12.728 234.451 11.64C235.923 10.52 237.827 9.96 240.163 9.96C243.683 9.96 246.083 10.6 247.363 11.88C247.907 12.424 248.243 13.032 248.371 13.704C248.499 14.376 248.563 15.448 248.563 16.92H247.603C247.347 15.32 246.675 14.088 245.587 13.224C244.499 12.328 243.011 11.88 241.123 11.88C239.619 11.88 238.435 12.2 237.571 12.84C236.739 13.448 236.323 14.248 236.323 15.24C236.323 16.904 237.603 18.264 240.163 19.32L243.043 20.52C245.219 21.416 246.803 22.376 247.795 23.4C248.787 24.392 249.283 25.672 249.283 27.24C249.283 29.192 248.499 30.728 246.931 31.848C245.363 32.936 243.347 33.48 240.883 33.48Z" fill="#7000FF"/>
</svg>
