<svg width="107" height="34" viewBox="0 0 107 34" fill="none" xmlns="http://www.w3.org/2000/svg">
<path d="M11.536 33.816C9.776 33.816 8.048 33.576 6.352 33.096C4.656 32.616 3.264 31.928 2.176 31.032C1.12 30.136 0.592 29.112 0.592 27.96V22.824H1.456C2 26.024 3.056 28.344 4.624 29.784C6.192 31.192 8.352 31.896 11.104 31.896C12.832 31.896 14.304 31.464 15.52 30.6C16.768 29.736 17.392 28.536 17.392 27C17.392 25.656 16.976 24.488 16.144 23.496C15.312 22.504 13.968 21.464 12.112 20.376L6.208 16.872C4.16 15.656 2.704 14.424 1.84 13.176C1.008 11.928 0.592 10.408 0.592 8.616C0.592 6.152 1.44 4.184 3.136 2.712C4.864 1.208 7.12 0.455998 9.904 0.455998C11.536 0.455998 13.152 0.695998 14.752 1.176C16.352 1.624 17.664 2.296 18.688 3.192C19.744 4.056 20.272 5.064 20.272 6.216V11.352H19.408C18.864 8.152 17.824 5.864 16.288 4.488C14.784 3.08 12.656 2.376 9.904 2.376C8.432 2.376 7.136 2.824 6.016 3.72C4.896 4.616 4.336 5.784 4.336 7.224C4.336 8.536 4.736 9.624 5.536 10.488C6.368 11.352 7.744 12.36 9.664 13.512L15.568 17.016C17.744 18.328 19.28 19.544 20.176 20.664C21.072 21.784 21.52 23.208 21.52 24.936C21.52 27.624 20.624 29.784 18.832 31.416C17.04 33.016 14.608 33.816 11.536 33.816ZM53.4498 33.24C51.9138 33.24 50.3938 32.824 48.8898 31.992C47.3858 31.128 46.1858 29.464 45.2898 27L44.0898 23.88H30.6497L26.8098 33H24.6498L38.0898 1.32H39.5298L50.0898 27C50.8898 28.856 51.6418 30.136 52.3458 30.84C53.0498 31.512 54.0578 31.912 55.3698 32.04V33C54.7938 33.16 54.1538 33.24 53.4498 33.24ZM43.1298 21.96L37.3698 8.04L31.3698 21.96H43.1298ZM59.1505 7.08C59.1505 5.448 58.9265 4.248 58.4785 3.48C58.0305 2.68 57.1345 2.28 55.7905 2.28H54.8305V1.32H59.1505C60.3345 1.32 61.2145 1.48 61.7905 1.8C62.3985 2.088 62.8305 2.632 63.0865 3.432C63.3425 4.232 63.4705 5.448 63.4705 7.08V31.08H80.5105V33H59.1505V7.08ZM85.0255 7.08C85.0255 5.448 84.8015 4.248 84.3535 3.48C83.9055 2.68 83.0095 2.28 81.6655 2.28H80.7055V1.32H101.154C103.874 1.32 105.234 2.6 105.234 5.16V8.76H104.274C104.274 5.08 102.274 3.24 98.2735 3.24H89.3455V15.72H102.306V17.64H89.3455V31.08H97.7455C99.9535 31.08 101.682 30.68 102.93 29.88C104.178 29.08 105.17 27.72 105.906 25.8L106.866 26.04L105.186 30.6C104.61 32.2 103.41 33 101.586 33H85.0255V7.08Z" fill="#7000FF"/>
</svg>
